<svg xmlns="http://www.w3.org/2000/svg" viewBox="0 0 1000 1000"><path fill="#fff" d="M103.73 10.83C62.86 16.4 26.98 47.1 14.31 87.59c-5.18 16.5-5.56 44.33-.96 60.25 8.64 28.98 2.5 22.26 173.47 193.43l158.7 158.89-158.7 158.7C15.85 830.23 21.99 823.51 13.35 852.49c-4.8 15.93-4.41 43.94.96 60.26 10.94 34.73 38.57 62.17 73.11 73.11 16.31 5.37 44.33 5.76 60.26.96 28.98-8.63 22.26-2.49 193.62-173.47L500 654.65l158.89 158.7c171.17 170.98 164.45 164.84 193.43 173.47 15.93 4.8 43.95 4.42 60.26-.96 34.73-10.94 62.18-38.57 73.11-73.11 5.37-16.31 5.76-44.33.96-60.26-8.63-28.98-2.49-22.26-173.47-193.62l-158.7-158.7 158.7-158.89c170.98-171.17 164.84-164.46 173.47-193.43 4.8-15.93 4.42-43.94-.96-60.25-10.94-34.54-38.38-62.17-73.11-73.11-16.31-5.37-44.33-5.76-60.26-.96-28.98 8.63-22.26 2.5-193.43 173.47L500 345.69l-158.7-158.7C203.13 49.02 180.88 27.72 170.7 22.73c-21.68-10.94-44.71-14.97-66.97-11.9z"/></svg>